<?xml version="1.0" encoding="UTF-8"?><svg xmlns="http://www.w3.org/2000/svg" xmlns:xlink="http://www.w3.org/1999/xlink" viewBox="0 0 202 188"><defs><style>.cls-1,.cls-2{fill:#fff;}.cls-3{opacity:.5;}.cls-4{fill:url(#_未命名漸層_6-5);}.cls-5{isolation:isolate;}.cls-6{fill:#5e440f;mix-blend-mode:multiply;opacity:.16;}.cls-7{fill:#ffc0c4;}.cls-8{fill:#fcbe3c;}.cls-2{filter:url(#drop-shadow-15);}.cls-9{fill:#de4848;}.cls-10{fill:#f6444c;}.cls-11{fill:url(#_未命名漸層_6-6);}.cls-12{fill:#75716b;}.cls-13{clip-path:url(#clippath);}.cls-14{fill:url(#_未命名漸層_6-4);}.cls-15{fill:none;}.cls-16{fill:url(#_未命名漸層_6-3);}.cls-17{fill:#e5363e;}.cls-18{fill:url(#_未命名漸層_6);}.cls-19{fill:url(#_未命名漸層_6-2);}</style><clipPath id="clippath"><rect class="cls-15" x=".11" y=".09" width="201.78" height="187.83" rx="18.66" ry="18.66"/></clipPath><linearGradient id="_未命名漸層_6" x1="-40.11" y1="-.67" x2="64.06" y2="-.67" gradientUnits="userSpaceOnUse"><stop offset="0" stop-color="#ff767d"/><stop offset="1" stop-color="#ff7d80"/></linearGradient><linearGradient id="_未命名漸層_6-2" x1="9.56" y1="85.42" x2="39.48" y2="85.42" xlink:href="#_未命名漸層_6"/><linearGradient id="_未命名漸層_6-3" x1="177.34" y1="19.45" x2="192.06" y2="19.45" xlink:href="#_未命名漸層_6"/><linearGradient id="_未命名漸層_6-4" x1="180.39" y1="74.5" x2="220.88" y2="74.5" xlink:href="#_未命名漸層_6"/><linearGradient id="_未命名漸層_6-5" x1="165.13" y1="142.97" x2="193.54" y2="142.97" xlink:href="#_未命名漸層_6"/><linearGradient id="_未命名漸層_6-6" x1="11.08" y1="168.49" x2="93.14" y2="168.49" xlink:href="#_未命名漸層_6"/><filter id="drop-shadow-15" filterUnits="userSpaceOnUse"><feOffset dx="0" dy="0"/><feGaussianBlur result="blur" stdDeviation="5.97"/><feFlood flood-color="#000" flood-opacity=".1"/><feComposite in2="blur" operator="in"/><feComposite in="SourceGraphic"/></filter></defs><g class="cls-5"><g id="text_list"><g class="cls-3"><g class="cls-13"><rect class="cls-7" x="-.62" y="-1.02" width="203.64" height="189.58" rx="4.03" ry="4.03"/><circle class="cls-18" cx="11.98" cy="-.67" r="52.08"/><circle class="cls-19" cx="24.52" cy="85.42" r="14.96"/><circle class="cls-16" cx="184.7" cy="19.45" r="7.36"/><circle class="cls-14" cx="200.64" cy="74.5" r="20.24"/><circle class="cls-4" cx="179.33" cy="142.97" r="14.2"/><circle class="cls-11" cx="52.11" cy="168.49" r="41.03"/></g></g><rect class="cls-2" x="9.06" y="8.88" width="183.63" height="169.58" rx="15.33" ry="15.33"/><rect class="cls-15" x="177.45" y="24.89" width="19.33" height="19.33"/><rect class="cls-15" x="151.67" y="24.53" width="19.33" height="19.33"/><path class="cls-12" d="m53.95,125.56c-.19.9-.58,1.73-1.3,2.46,2.01.79,4.65.96,7.98.99-.27.35-.53.96-.61,1.44-3.52-.13-6.38-.39-8.57-1.48-1.02.64-2.45,1.18-4.37,1.59-.17-.33-.57-.96-.89-1.29,1.71-.3,2.95-.69,3.89-1.15-.71-.53-1.3-1.21-1.82-2.03l1.27-.5c.49.71,1.07,1.27,1.76,1.73.6-.53.93-1.13,1.12-1.77h-4.52v-6.19h4.76v-1.13h-6.14v-1.32h13.58v1.32h-5.92v1.13h4.93v6.19h-5.13Zm-4.69-3.66h3.38v-1.33h-3.38v1.33Zm3.34,2.47c.03-.25.03-.5.03-.77v-.56h-3.38v1.33h3.34Zm5.04-1.33h-3.49v.58c0,.27,0,.5-.03.75h3.52v-1.33Zm-3.49-2.47v1.33h3.49v-1.33h-3.49Z"/><path class="cls-12" d="m75.87,129.12v1.1h-13.79v-1.1h4c-.17-.46-.44-1-.71-1.41l.28-.08h-1.65v-2.97h10.14v2.97h-1.62l.27.08c-.3.5-.6,1-.88,1.41h3.94Zm-.17-5.1h-13.38v-1.04h13.38v1.04Zm-.66-1.7h-12.11v-5.79h1.26v4.77h1.59v-.69h-1.19v-.74h1.19v-.61h-1.04v-.74h1.04v-.61h-1.13v-.74h1.13v-.8h.91v.8h1.16v.74h-1.16v.61h1.08v.74h-1.08v.61h1.24v.74h-1.24v.69h1.63v-5.18h1.27v5.18h1.62v-.69h-1.22v-.74h1.22v-.61h-1.07v-.74h1.07v-.61h-1.16v-.74h1.16v-.8h.91v.8h1.16v.74h-1.16v.61h1.07v.74h-1.07v.61h1.24v.74h-1.24v.69h1.62v-4.77h1.3v5.79Zm-9.66,4.4h7.33v-1.15h-7.33v1.15Zm1.46.91c.3.47.55,1.02.68,1.41l-.25.08h3.42l-.16-.05c.25-.39.58-.96.8-1.44h-4.49Z"/><path class="cls-12" d="m91.28,117.33v3.14h-1.46v-1.9h-10.29v1.9h-1.4v-3.14h5.79c-.16-.36-.34-.72-.5-1.04l1.57-.33c.24.41.52.96.71,1.37h5.57Zm-12.22,7.55h11.34v5.64h-1.45v-.42h-8.51v.47h-1.38v-5.68Zm1.08-3.75h9.01v2.98h-9.01v-2.98Zm8.9-1.76v1.04h-8.75v-1.04h8.75Zm-8.6,6.61v1h3.45v-1h-3.45Zm0,3.01h3.45v-1.05h-3.45v1.05Zm1.04-5.87h6.26v-.99h-6.26v.99Zm7.47,2.86h-3.63v1h3.63v-1Zm0,3.01v-1.05h-3.63v1.05h3.63Z"/><path class="cls-12" d="m105.31,129.01c.56,0,.67-.24.74-1.81.31.24.91.46,1.3.55-.17,2.04-.57,2.56-1.93,2.56h-2.4c-1.66,0-2.07-.41-2.07-1.82v-3.34h-1.26c-.36,2.78-1.35,4.6-5.34,5.54-.13-.38-.5-.96-.8-1.26,3.55-.72,4.32-2.1,4.62-4.29h-2.01v-4.91c-.63.47-1.27.9-1.93,1.24-.27-.3-.86-.86-1.24-1.13,1.96-.86,3.83-2.34,4.87-4.04l1.52.52c-.72,1.16-1.74,2.21-2.83,3.11h8.17v5.21h-2.31v3.33c0,.46.11.53.79.53h2.12Zm-7.6-5.18h5.39v-2.57h-5.39v2.57Zm8.6-2.25c-1-1.27-3.2-3.2-4.99-4.54l1.22-.74c1.76,1.26,3.99,3.11,5.1,4.4l-1.33.88Z"/><path class="cls-12" d="m118.72,126.91c-.6,1.82-1.93,3-5.01,3.66-.12-.35-.46-.86-.72-1.15,2.51-.46,3.66-1.26,4.24-2.51h-3.77v-1.18h1.22v-4.57c-.09.08-.19.17-.28.25-.17-.28-.55-.74-.85-.96v.09h-1.46v2.65l1.38-.44.24,1.3-1.62.55v4.16c0,.74-.14,1.16-.55,1.4-.44.24-1.05.3-2.01.3-.03-.38-.2-1.02-.39-1.43.58.02,1.13.02,1.3.02.19,0,.25-.06.25-.27v-3.69c-.55.19-1.1.36-1.57.52l-.36-1.4c.55-.16,1.21-.35,1.93-.56v-3.11h-1.74v-1.35h1.74v-3.06h1.4v3.06h1.46v1.21c1.52-1.22,2.5-2.9,3-4.25l1.37.2c-.12.33-.28.66-.44.99h2.2l.22-.05.86.55c-.3.64-.77,1.4-1.19,2.04h2.75v5.84h.97v1.18h-4.57Zm-1.88-8.4c-.28.47-.6.93-.96,1.38h2.29c.28-.41.58-.9.82-1.38h-2.15Zm.75,7.22c.09-.42.14-.91.19-1.43h1.41c-.05.5-.11.99-.19,1.43h2.07v-2.12l-.58.69c-.46-.46-1.3-1.07-2.07-1.55-.47.63-1.04,1.19-1.57,1.62-.2-.19-.68-.53-.94-.68.93-.63,1.76-1.59,2.23-2.62h-2.25v4.66h1.7Zm3.49-4.66h-2.09l.36.09c-.11.27-.25.52-.41.79.77.44,1.63,1.02,2.14,1.46v-2.34Zm-1.26,5.86c1.16.83,2.78,2.04,3.59,2.76l-.94.93c-.77-.75-2.36-2.01-3.53-2.9l.88-.79Z"/><path class="cls-12" d="m125.26,123.68h5.68v6.77h-1.44v-.71h-2.86v.82h-1.38v-6.88Zm1.38,1.4v3.27h2.86v-3.27h-2.86Zm9.61-2.92h-8.78v-5.35h8.78v5.35Zm-1.49-3.96h-5.89v2.56h5.89v-2.56Zm3.69,5.48v6.8h-1.46v-.74h-3.11v.82h-1.4v-6.88h5.97Zm-1.46,4.66v-3.27h-3.11v3.27h3.11Z"/><path class="cls-12" d="m146.25,125.69c-1.93.71-3.96,1.44-5.51,1.98l-.58-1.4c.63-.19,1.41-.42,2.28-.71v-6.31h-1.93v-1.35h5.32v1.35h-1.93v5.84l2.1-.69.25,1.29Zm3.28,2.83c-1,.79-2.62,1.6-3.99,2.04-.2-.28-.63-.75-.91-1,1.32-.42,2.9-1.21,3.69-1.85l1.21.82Zm-.35-9.09c.09-.44.19-.91.27-1.35h-3.52v-1.24h8.81v1.24h-3.63c-.14.46-.31.93-.46,1.35h3.49v8.15h-7.49v-8.15h2.53Zm3.53,1.1h-4.71v1.29h4.71v-1.29Zm0,2.31h-4.71v1.3h4.71v-1.3Zm0,2.32h-4.71v1.32h4.71v-1.32Zm-.83,2.61c1.02.52,2.4,1.35,3.12,1.93l-1.16.88c-.64-.56-2.03-1.44-3.05-2.03l1.08-.78Z"/><rect class="cls-9" x="60.22" y="146.46" width="81.56" height="25.73" rx="12.86" ry="12.86"/><path class="cls-1" d="m84.25,158.06c-.64,1.17-1.44,2.25-2.39,3.21.47,1.32,1.02,2.11,1.6,2.11.34,0,.51-.69.58-2.45.3.31.75.62,1.1.74-.23,2.4-.67,3.06-1.81,3.06-1.08,0-1.91-.93-2.53-2.45-.88.75-1.81,1.39-2.8,1.91-.21-.33-.57-.76-.91-1.06,1.16-.54,2.26-1.29,3.27-2.16-.34-1.15-.58-2.5-.75-3.96h-3.13v1.98l2.36-.47.1,1.17c-.81.18-1.64.38-2.46.55v2.81c0,.78-.18,1.16-.68,1.37-.5.21-1.29.25-2.42.25-.07-.37-.3-.98-.5-1.33.86.03,1.68.03,1.92.01.25-.01.34-.08.34-.31v-2.52c-1,.21-1.92.41-2.73.58l-.37-1.32c.83-.14,1.92-.34,3.1-.57v-2.24h-2.86v-1.24h2.86v-1.95c-.83.14-1.67.25-2.43.35-.07-.3-.24-.81-.41-1.09,1.97-.3,4.21-.75,5.59-1.23l.92,1.1c-.69.23-1.5.42-2.33.59v2.22h3c-.11-1.27-.17-2.6-.18-3.95h1.36c-.01,1.36.04,2.7.16,3.95h4.02v1.24h-3.88c.14,1.06.3,2.01.51,2.87.64-.72,1.19-1.5,1.61-2.31l1.17.5Zm-.74-2.93c-.4-.67-1.32-1.68-2.11-2.39l.99-.68c.79.68,1.74,1.64,2.18,2.31l-1.06.76Z"/><path class="cls-1" d="m96.17,160.76c-.41.71-.95,1.29-1.57,1.77,1.63.4,3.1.79,4.2,1.17l-1.19.92c-1.1-.41-2.6-.86-4.34-1.29-1.6.75-3.69,1.13-6.38,1.34-.1-.38-.31-.86-.52-1.15,1.92-.1,3.51-.31,4.81-.67-1-.21-2.02-.4-3.07-.58.37-.44.78-.96,1.17-1.53h-2.87v-1.1h3.61c.3-.47.57-.96.76-1.4l1.33.28c-.18.37-.4.75-.62,1.12h3.8c.11-.25.23-.52.33-.81l1.27.35c-.06.14-.11.3-.17.45h2.29v1.1h-2.84Zm-5.79-7.37h-3.76v-1.15h12.12v1.15h-3.89v1.03h3.37v3.75h-10.92v-3.75h3.08v-1.03Zm-1.85,3.73h1.85v-1.65h-1.85v1.65Zm2.24,3.64c-.2.31-.41.59-.62.86.95.17,1.88.34,2.8.54.67-.37,1.22-.83,1.66-1.4h-3.83Zm2.84-7.37h-1.98v1.03h1.98v-1.03Zm-1.98,3.73h1.98v-1.65h-1.98v1.65Zm3.23-1.65v1.65h2.07v-1.65h-2.07Z"/><path class="cls-1" d="m111.28,163.28c.51,0,.61-.21.67-1.63.28.21.82.41,1.17.5-.16,1.84-.51,2.31-1.74,2.31h-2.16c-1.5,0-1.87-.37-1.87-1.64v-3.01h-1.13c-.33,2.5-1.22,4.14-4.81,4.99-.11-.34-.45-.86-.72-1.13,3.2-.65,3.89-1.9,4.16-3.86h-1.81v-4.43c-.57.42-1.15.81-1.74,1.12-.24-.27-.78-.78-1.12-1.02,1.77-.78,3.45-2.11,4.38-3.64l1.37.47c-.65,1.05-1.57,1.99-2.55,2.8h7.35v4.7h-2.08v3c0,.41.1.48.71.48h1.91Zm-6.85-4.67h4.85v-2.32h-4.85v2.32Zm7.75-2.02c-.91-1.15-2.89-2.89-4.5-4.09l1.1-.66c1.58,1.13,3.59,2.8,4.6,3.96l-1.2.79Z"/><path class="cls-1" d="m123.36,161.38c-.54,1.64-1.74,2.7-4.51,3.3-.11-.31-.41-.78-.65-1.03,2.26-.41,3.3-1.13,3.82-2.26h-3.39v-1.06h1.1v-4.12c-.08.07-.17.16-.25.23-.16-.25-.5-.67-.76-.86v.08h-1.32v2.39l1.24-.4.21,1.17-1.46.5v3.75c0,.67-.13,1.05-.5,1.26-.4.21-.95.27-1.81.27-.03-.34-.18-.92-.35-1.29.52.01,1.02.01,1.17.01.17,0,.23-.06.23-.24v-3.32c-.5.17-.99.33-1.42.47l-.33-1.26c.5-.14,1.09-.31,1.74-.51v-2.8h-1.57v-1.22h1.57v-2.76h1.26v2.76h1.32v1.09c1.37-1.1,2.25-2.62,2.7-3.83l1.23.18c-.11.3-.25.59-.4.89h1.98l.2-.04.78.5c-.27.58-.69,1.26-1.08,1.84h2.48v5.26h.88v1.06h-4.12Zm-1.7-7.57c-.25.42-.54.83-.86,1.25h2.07c.25-.37.52-.81.74-1.25h-1.94Zm.68,6.51c.08-.38.13-.82.17-1.29h1.27c-.04.45-.1.89-.17,1.29h1.87v-1.91l-.52.62c-.41-.41-1.17-.96-1.87-1.4-.42.57-.93,1.08-1.42,1.46-.18-.17-.61-.48-.85-.61.83-.57,1.58-1.43,2.01-2.36h-2.02v4.2h1.53Zm3.14-4.2h-1.88l.33.08c-.1.24-.23.47-.37.71.69.4,1.47.92,1.92,1.32v-2.11Zm-1.13,5.28c1.05.75,2.5,1.84,3.24,2.49l-.85.83c-.69-.68-2.12-1.81-3.18-2.62l.79-.71Z"/><polygon class="cls-10" points="126.04 98.56 75.61 98.56 72.15 49.07 129.49 49.07 126.04 98.56"/><polygon class="cls-17" points="128.71 60.34 129.49 49.07 72.15 49.07 72.94 60.34 128.71 60.34"/><rect class="cls-10" x="69.9" y="43.69" width="62.2" height="12.7"/><rect class="cls-6" x="91.38" y="44.11" width="18.88" height="54.77"/><rect class="cls-8" x="94.47" y="44.11" width="12.7" height="54.77"/><path class="cls-8" d="m84.59,28.69c-3.77,2.91-3.2,8.68,1.27,12.88,4.46,4.21,11.14,6.51,14.9,3.6,3.77-2.91,3.2-9.93-1.27-14.14-4.46-4.21-11.14-5.26-14.9-2.35Zm13.85,14.3c-1.9,1.47-5.27-.32-7.52-2.44-2.25-2.12-2.54-5.04-.64-6.5,1.9-1.47,5.27-.94,7.52,1.19,2.25,2.12,2.54,6.29.64,7.76Z"/><path class="cls-8" d="m103.41,31.04c-4.46,4.21-5.03,11.23-1.27,14.14,3.77,2.91,10.44.6,14.9-3.6,4.46-4.21,5.03-9.97,1.27-12.88-3.77-2.91-10.44-1.86-14.9,2.35Zm1.69,4.19c2.25-2.12,5.62-2.65,7.52-1.19,1.9,1.47,1.61,4.38-.64,6.5-2.25,2.12-5.62,3.91-7.52,2.44s-1.61-5.63.64-7.76Z"/></g></g></svg>