<?xml version="1.0" encoding="UTF-8"?><svg id="_圖層_2" xmlns="http://www.w3.org/2000/svg" viewBox="0 0 20.9 16.72"><defs><style>.cls-1{fill:#5f3f05;}</style></defs><g id="text_list"><path class="cls-1" d="m16.98,9.15v-1.57h3.92v1.57h-3.92Zm1.31,7.58l-3.16-2.35.94-1.25,3.16,2.35-.94,1.25Zm-2.14-13.14l-.94-1.25,3.08-2.33.94,1.25-3.08,2.33ZM3.4,15.68v-4.18h-1.83c-.43,0-.8-.15-1.11-.46s-.46-.68-.46-1.11v-3.14c0-.43.15-.8.46-1.11s.68-.46,1.11-.46h4.7l5.23-3.14v12.54l-5.23-3.14h-1.31v4.18h-1.57Zm9.15-3.81v-7c.47.42.85.93,1.14,1.53.29.6.43,1.26.43,1.97s-.14,1.37-.43,1.97c-.29.6-.67,1.11-1.14,1.53ZM1.57,6.79v3.14h5.12l3.24,1.93v-7l-3.24,1.93H1.57Z"/></g></svg>